<svg width="0" height="0" class="hidden">
  <symbol version="1.0" xmlns="http://www.w3.org/2000/svg" preserveAspectRatio="xMidYMid meet" viewBox="0 0 512.000000 512.000000" id="debatadeo">
    <g transform="translate(0.000000,512.000000) scale(0.100000,-0.100000)" fill="#000000" stroke="none">
      <path d="M2191 5105 c-364 -82 -657 -317 -726 -581 -19 -73 -19 -183 0 -253
16 -61 10 -81 -32 -108 -42 -28 -83 -92 -83 -131 0 -25 -10 -46 -39 -81 -62
-75 -116 -164 -161 -268 -83 -193 -109 -243 -155 -292 -62 -66 -123 -91 -255
-103 -157 -15 -203 -26 -291 -70 -186 -93 -357 -334 -421 -593 -27 -106 -19
-148 31 -182 70 -47 103 -25 217 140 98 142 237 282 319 321 49 24 79 30 176
37 145 10 193 21 297 71 67 31 86 46 97 71 15 35 6 72 -23 93 -26 20 -52 17
-102 -12 -81 -47 -149 -65 -280 -74 -69 -4 -139 -13 -155 -18 -89 -28 -224
-119 -296 -200 -37 -41 -39 -43 -21 -12 38 63 104 139 156 180 83 63 134 81
265 91 125 10 232 37 296 75 96 56 182 168 236 307 61 160 174 356 205 357 5
0 15 -5 22 -12 8 -8 4 -20 -17 -47 -55 -70 -95 -144 -161 -304 -58 -139 -66
-165 -58 -189 11 -32 35 -48 70 -48 45 1 68 35 128 184 69 175 155 312 189
301 30 -9 69 12 131 71 l58 55 83 -17 c183 -37 351 19 507 170 253 244 384
663 278 891 -32 68 -87 122 -163 157 -53 25 -78 31 -161 34 -63 2 -120 -1
-161 -11z m236 -150 c100 -30 139 -107 131 -260 -10 -181 -108 -394 -248 -535
-157 -159 -327 -198 -494 -113 -67 34 -146 116 -182 188 -26 54 -29 70 -29
160 0 93 2 105 34 169 120 245 554 461 788 391z m-785 -1017 l-22 -22 -55 54
-55 54 22 23 22 24 55 -56 56 -55 -23 -22z"></path>
      <path d="M4305 5093 c-202 -26 -513 -122 -572 -176 -33 -29 -31 -79 3 -106 33
-26 50 -26 111 0 186 82 396 130 568 132 282 3 438 -87 517 -299 19 -52 22
-79 22 -229 0 -145 -3 -184 -23 -265 -98 -395 -332 -793 -590 -1001 -100 -81
-255 -162 -366 -190 -111 -28 -280 -28 -390 1 -306 79 -539 313 -616 619 -18
71 -21 105 -17 210 4 109 9 139 38 225 73 216 243 427 464 578 32 22 67 49 77
59 24 24 25 81 2 101 -46 40 -79 30 -206 -65 -282 -213 -468 -485 -517 -757
-26 -143 -8 -355 42 -488 l20 -54 -125 -126 c-138 -140 -158 -176 -138 -248
10 -35 9 -38 -66 -122 -152 -174 -291 -416 -399 -695 -99 -253 -154 -346 -268
-455 -141 -133 -291 -187 -571 -202 -350 -19 -542 -105 -786 -349 -229 -230
-419 -586 -490 -916 -34 -160 -20 -213 64 -254 41 -20 48 -21 79 -8 47 20 71
50 198 237 147 217 223 313 343 437 155 160 324 269 477 308 41 11 135 20 255
25 233 10 337 34 500 114 208 103 356 238 497 456 74 114 106 179 184 377 111
280 204 447 320 573 51 54 57 58 89 53 78 -13 102 1 237 135 l127 125 88 -26
c164 -49 293 -59 446 -32 357 62 675 321 916 746 162 284 248 563 258 834 7
183 -8 272 -67 391 -87 178 -232 281 -449 319 -77 14 -213 18 -286 8z m-1330
-1885 c38 -58 168 -191 230 -236 28 -20 52 -37 54 -39 7 -5 -182 -193 -194
-193 -6 0 -80 70 -164 154 l-155 155 99 100 c54 56 100 101 101 101 1 0 14
-19 29 -42z m-165 -594 c-128 -155 -210 -304 -314 -568 -83 -208 -131 -305
-208 -418 -150 -220 -366 -373 -610 -434 -36 -9 -146 -19 -258 -24 -201 -9
-271 -22 -389 -69 -246 -99 -493 -336 -756 -726 -108 -160 -106 -157 -94 -104
39 172 151 425 264 596 134 200 289 344 460 429 126 62 219 83 410 94 231 13
353 41 493 114 196 104 345 294 452 579 116 309 242 535 403 719 l51 59 82
-82 83 -82 -69 -83z"></path>
      <path d="M4602 2689 c-80 -13 -196 -55 -297 -106 -223 -112 -371 -264 -432
-442 -27 -80 -31 -221 -8 -297 l15 -49 -54 -55 c-63 -65 -76 -87 -76 -133 0
-22 -7 -41 -21 -53 -56 -50 -156 -219 -208 -351 -66 -169 -130 -257 -214 -297
-57 -26 -86 -32 -232 -45 -173 -16 -290 -74 -411 -205 -132 -142 -254 -404
-254 -546 0 -34 6 -48 34 -76 40 -40 80 -45 119 -14 14 11 65 77 114 147 112
162 217 269 308 314 60 29 80 33 192 41 140 9 241 37 330 90 73 44 89 85 52
132 -28 36 -64 34 -142 -9 -77 -42 -173 -65 -278 -65 -142 0 -264 -57 -398
-184 -55 -52 -61 -56 -45 -27 37 66 155 176 226 211 59 28 85 34 206 45 196
19 286 57 381 161 57 63 83 109 146 261 47 113 110 229 155 283 27 33 30 34
46 19 15 -16 13 -21 -24 -70 -48 -65 -82 -131 -161 -318 -50 -115 -59 -145
-51 -165 19 -51 86 -62 125 -20 13 14 47 82 75 152 80 197 161 329 194 316 24
-9 71 18 128 73 l56 56 87 -18 c60 -12 107 -15 149 -10 279 29 535 289 642
650 23 76 27 110 28 215 0 109 -3 133 -23 184 -68 170 -242 244 -479 205z
m212 -150 c130 -32 177 -173 126 -372 -78 -305 -281 -542 -495 -577 -165 -27
-338 68 -413 227 -24 51 -27 70 -27 158 0 92 3 105 32 168 114 240 538 456
777 396z m-806 -945 l55 -55 -21 -22 -22 -22 -57 57 c-56 56 -57 57 -38 78 10
11 20 20 23 20 2 0 29 -25 60 -56z"></path>
    </g>
  </symbol>
</svg>