<svg xmlns="http://www.w3.org/2000/svg" xmlns:xlink="http://www.w3.org/1999/xlink" version="1.1" x="0px" y="0px" viewBox="0 0 100 125" enable-background="new 0 0 100 100" xml:space="preserve"><path fill="none" stroke="#000000" stroke-linecap="round" stroke-linejoin="round" stroke-miterlimit="10" d="M78.829,21.172  c-5.103-5.099-15.027-3.445-22.162,3.695c-6.609,6.606-8.507,15.588-4.714,20.935c-3.06,0.805-5.957,2.388-8.353,4.783h-0.002  c-3.343,3.342-5.407,7.958-5.411,13.058c0,5.105-2.067,9.719-5.409,13.061h-0.002c-3.605,3.606-8.329,5.408-13.055,5.415  l3.712,0.015c2.503,0,4.885-0.503,7.061-1.406c2.25-0.93,4.284-2.298,5.986-3.996l0.002-0.034c1.697-1.702,3.064-3.735,4.001-5.991  c0.899-2.171,1.404-4.559,1.4-7.063l0.012,0.014c0-1.998,0.401-3.907,1.123-5.644c0.749-1.809,1.841-3.432,3.201-4.789l0.001-0.03  c1.359-1.361,2.985-2.45,4.791-3.2c1.458-0.604,3.042-0.968,4.696-1.075c5.419,2.542,13.405,0.439,19.427-5.581  C82.274,36.196,83.932,26.274,78.829,21.172z"/><path fill="none" stroke="#000000" stroke-linecap="round" stroke-linejoin="round" stroke-miterlimit="10" d="M88.193,53.878  c-3.118-3.118-9.178-2.105-13.547,2.257c-3.676,3.679-4.957,8.558-3.407,11.871c-0.065,1.014-0.285,1.981-0.657,2.87  c-0.459,1.103-1.124,2.099-1.954,2.929h-0.021c-0.827,0.83-1.822,1.498-2.925,1.96c-1.064,0.438-2.229,0.683-3.452,0.683  l0.011,0.014c-1.533-0.007-2.991,0.3-4.317,0.851c-1.381,0.572-2.621,1.409-3.658,2.446h-0.021c-1.04,1.04-1.874,2.28-2.445,3.658  c-0.555,1.33-0.861,2.788-0.858,4.317L50.947,90c0.004-2.887,1.109-5.777,3.312-7.979l-0.004-0.004  c2.047-2.043,4.868-3.3,7.986-3.304c3.114,0,5.936-1.261,7.979-3.304v-0.004c1.468-1.464,2.433-3.231,2.922-5.105  c3.27,2.318,8.757,1.157,12.795-2.88C90.298,63.063,91.308,56.995,88.193,53.878z"/><path fill="none" stroke="#000000" stroke-linecap="round" stroke-linejoin="round" stroke-miterlimit="10" d="M46.12,11.808  c-3.114-3.116-9.181-2.107-13.543,2.258c-4.036,4.036-5.195,9.524-2.878,12.79c-1.871,0.493-3.64,1.458-5.104,2.923h-0.003  c-2.043,2.046-3.302,4.866-3.302,7.98c-0.003,3.118-1.266,5.938-3.307,7.984l-0.003-0.002c-2.204,2.203-5.092,3.306-7.979,3.311  l2.269,0.003c1.53,0.005,2.983-0.303,4.313-0.854c1.378-0.57,2.622-1.407,3.662-2.444v-0.024c1.035-1.036,1.872-2.276,2.446-3.657  c0.551-1.326,0.856-2.785,0.853-4.317l0.012,0.009c0-1.225,0.243-2.388,0.684-3.45c0.458-1.104,1.128-2.098,1.957-2.927v-0.021  c0.831-0.829,1.828-1.494,2.929-1.95c0.889-0.374,1.855-0.596,2.868-0.662c3.314,1.554,8.192,0.271,11.874-3.409  C48.23,20.988,49.238,14.924,46.12,11.808z"/><text x="0" y="115" fill="#000000" font-size="5px" font-weight="bold" font-family="'Helvetica Neue', Helvetica, Arial-Unicode, Arial, Sans-serif">Created by Danil Polshin</text><text x="0" y="120" fill="#000000" font-size="5px" font-weight="bold" font-family="'Helvetica Neue', Helvetica, Arial-Unicode, Arial, Sans-serif">from the Noun Project</text></svg>