<svg width="0" height="0" class="hidden">
  <symbol version="1.0" xmlns="http://www.w3.org/2000/svg" preserveAspectRatio="xMidYMid meet" viewBox="0 0 200.000000 200.000000" id="4453284-200">
    <g transform="translate(0.000000,200.000000) scale(0.100000,-0.100000)" fill="#000000" stroke="none">
      <path d="M1645 1665 c-241 -53 -415 -188 -415 -322 0 -29 -9 -43 -55 -87 -48
-45 -55 -57 -55 -89 0 -29 -10 -49 -44 -91 -23 -29 -60 -78 -80 -108 -46 -70
-124 -144 -179 -168 -31 -15 -65 -20 -132 -20 -175 -1 -291 -43 -371 -135 -44
-49 -148 -244 -160 -298 -12 -54 12 -25 63 76 90 174 141 229 249 269 51 19
82 22 229 23 227 2 249 12 368 169 103 136 145 176 183 176 23 0 44 9 67 29
33 30 34 30 77 15 98 -34 212 26 332 175 140 174 165 320 66 381 -38 23 -58
23 -143 5z"></path>
    </g>
  </symbol>
</svg>